<mxfile host="app.diagrams.net" agent="Mozilla/5.0 (Macintosh; Intel Mac OS X 10_15_7) AppleWebKit/605.1.15 (KHTML, like Gecko) Version/18.0 Safari/605.1.15" version="27.0.2">
  <diagram name="Page-1" id="YlBPvI05ag21ZCimZUHD">
    <mxGraphModel dx="1376" dy="671" grid="0" gridSize="10" guides="1" tooltips="1" connect="1" arrows="1" fold="1" page="0" pageScale="1" pageWidth="827" pageHeight="1169" math="0" shadow="0">
      <root>
        <mxCell id="0" />
        <mxCell id="1" parent="0" />
        <mxCell id="WFuNydp6h5hT6rmujta5-1" value="DIKUarcade entity" style="swimlane;whiteSpace=wrap;html=1;" parent="1" vertex="1">
          <mxGeometry x="150" y="135" width="170" height="170" as="geometry" />
        </mxCell>
        <mxCell id="WFuNydp6h5hT6rmujta5-4" value="Shape shape" style="text;html=1;align=center;verticalAlign=middle;resizable=0;points=[];autosize=1;strokeColor=none;fillColor=none;" parent="WFuNydp6h5hT6rmujta5-1" vertex="1">
          <mxGeometry y="20" width="90" height="30" as="geometry" />
        </mxCell>
        <mxCell id="WFuNydp6h5hT6rmujta5-5" value="IbaseImage" style="text;html=1;align=center;verticalAlign=middle;resizable=0;points=[];autosize=1;strokeColor=none;fillColor=none;" parent="WFuNydp6h5hT6rmujta5-1" vertex="1">
          <mxGeometry y="50" width="90" height="30" as="geometry" />
        </mxCell>
        <mxCell id="WFuNydp6h5hT6rmujta5-6" value="DeleteEntity" style="text;html=1;align=center;verticalAlign=middle;resizable=0;points=[];autosize=1;strokeColor=none;fillColor=none;" parent="WFuNydp6h5hT6rmujta5-1" vertex="1">
          <mxGeometry y="80" width="90" height="30" as="geometry" />
        </mxCell>
        <mxCell id="WFuNydp6h5hT6rmujta5-7" value="Isdeleted" style="text;html=1;align=center;verticalAlign=middle;resizable=0;points=[];autosize=1;strokeColor=none;fillColor=none;" parent="WFuNydp6h5hT6rmujta5-1" vertex="1">
          <mxGeometry y="108" width="70" height="30" as="geometry" />
        </mxCell>
        <mxCell id="WFuNydp6h5hT6rmujta5-8" value="RenderEntity" style="text;html=1;align=center;verticalAlign=middle;resizable=0;points=[];autosize=1;strokeColor=none;fillColor=none;" parent="WFuNydp6h5hT6rmujta5-1" vertex="1">
          <mxGeometry y="138" width="90" height="30" as="geometry" />
        </mxCell>
        <mxCell id="WFuNydp6h5hT6rmujta5-57" style="edgeStyle=orthogonalEdgeStyle;rounded=0;orthogonalLoop=1;jettySize=auto;html=1;exitX=0;exitY=0;exitDx=0;exitDy=0;entryX=1;entryY=1;entryDx=0;entryDy=0;" parent="1" source="WFuNydp6h5hT6rmujta5-15" target="WFuNydp6h5hT6rmujta5-1" edge="1">
          <mxGeometry relative="1" as="geometry">
            <Array as="points">
              <mxPoint x="320" y="465" />
            </Array>
          </mxGeometry>
        </mxCell>
        <mxCell id="WFuNydp6h5hT6rmujta5-75" value="&lt;span style=&quot;font-size: 12px; background-color: rgb(251, 251, 251);&quot;&gt;Inheritance&lt;/span&gt;" style="edgeLabel;html=1;align=center;verticalAlign=middle;resizable=0;points=[];" parent="WFuNydp6h5hT6rmujta5-57" vertex="1" connectable="0">
          <mxGeometry x="0.6658" y="-2" relative="1" as="geometry">
            <mxPoint as="offset" />
          </mxGeometry>
        </mxCell>
        <mxCell id="WFuNydp6h5hT6rmujta5-15" value="Ball" style="swimlane;fontStyle=1;align=center;verticalAlign=top;childLayout=stackLayout;horizontal=1;startSize=26;horizontalStack=0;resizeParent=1;resizeParentMax=0;resizeLast=0;collapsible=1;marginBottom=0;whiteSpace=wrap;html=1;" parent="1" vertex="1">
          <mxGeometry x="380" y="465" width="180" height="130" as="geometry" />
        </mxCell>
        <mxCell id="WFuNydp6h5hT6rmujta5-16" value="+ DynamicShape: shape&lt;div&gt;&lt;br&gt;&lt;div&gt;&lt;br&gt;&lt;/div&gt;&lt;/div&gt;" style="text;strokeColor=none;fillColor=none;align=left;verticalAlign=top;spacingLeft=4;spacingRight=4;overflow=hidden;rotatable=0;points=[[0,0.5],[1,0.5]];portConstraint=eastwest;whiteSpace=wrap;html=1;" parent="WFuNydp6h5hT6rmujta5-15" vertex="1">
          <mxGeometry y="26" width="180" height="26" as="geometry" />
        </mxCell>
        <mxCell id="WFuNydp6h5hT6rmujta5-17" value="" style="line;strokeWidth=1;fillColor=none;align=left;verticalAlign=middle;spacingTop=-1;spacingLeft=3;spacingRight=3;rotatable=0;labelPosition=right;points=[];portConstraint=eastwest;strokeColor=inherit;" parent="WFuNydp6h5hT6rmujta5-15" vertex="1">
          <mxGeometry y="52" width="180" height="8" as="geometry" />
        </mxCell>
        <mxCell id="WFuNydp6h5hT6rmujta5-18" value="Launch()&lt;div&gt;Move()&lt;/div&gt;&lt;div&gt;HandleCollision&lt;/div&gt;&lt;div&gt;HandlePlayerCollision&lt;/div&gt;" style="text;strokeColor=none;fillColor=none;align=left;verticalAlign=top;spacingLeft=4;spacingRight=4;overflow=hidden;rotatable=0;points=[[0,0.5],[1,0.5]];portConstraint=eastwest;whiteSpace=wrap;html=1;" parent="WFuNydp6h5hT6rmujta5-15" vertex="1">
          <mxGeometry y="60" width="180" height="70" as="geometry" />
        </mxCell>
        <mxCell id="WFuNydp6h5hT6rmujta5-20" value="GameRunning" style="swimlane;fontStyle=1;align=center;verticalAlign=top;childLayout=stackLayout;horizontal=1;startSize=26;horizontalStack=0;resizeParent=1;resizeParentMax=0;resizeLast=0;collapsible=1;marginBottom=0;whiteSpace=wrap;html=1;" parent="1" vertex="1">
          <mxGeometry x="640" y="37" width="160" height="210" as="geometry" />
        </mxCell>
        <mxCell id="WFuNydp6h5hT6rmujta5-21" value="Player&lt;div&gt;Ball&lt;/div&gt;&lt;div&gt;Entitycontainer&lt;/div&gt;&lt;div&gt;Points&lt;/div&gt;&lt;div&gt;&lt;br&gt;&lt;/div&gt;" style="text;strokeColor=none;fillColor=none;align=left;verticalAlign=top;spacingLeft=4;spacingRight=4;overflow=hidden;rotatable=0;points=[[0,0.5],[1,0.5]];portConstraint=eastwest;whiteSpace=wrap;html=1;" parent="WFuNydp6h5hT6rmujta5-20" vertex="1">
          <mxGeometry y="26" width="160" height="74" as="geometry" />
        </mxCell>
        <mxCell id="WFuNydp6h5hT6rmujta5-22" value="" style="line;strokeWidth=1;fillColor=none;align=left;verticalAlign=middle;spacingTop=-1;spacingLeft=3;spacingRight=3;rotatable=0;labelPosition=right;points=[];portConstraint=eastwest;strokeColor=inherit;" parent="WFuNydp6h5hT6rmujta5-20" vertex="1">
          <mxGeometry y="100" width="160" height="8" as="geometry" />
        </mxCell>
        <mxCell id="WFuNydp6h5hT6rmujta5-23" value="Update()&lt;div&gt;Render&lt;/div&gt;&lt;div&gt;Addpoints&lt;/div&gt;&lt;div&gt;CreatePlayer&lt;/div&gt;&lt;div&gt;CreateBall&lt;/div&gt;&lt;div&gt;HandleKeyEvents&lt;/div&gt;&lt;div&gt;&lt;br&gt;&lt;/div&gt;&lt;div&gt;&lt;br&gt;&lt;div&gt;&lt;br&gt;&lt;/div&gt;&lt;/div&gt;" style="text;strokeColor=none;fillColor=none;align=left;verticalAlign=top;spacingLeft=4;spacingRight=4;overflow=hidden;rotatable=0;points=[[0,0.5],[1,0.5]];portConstraint=eastwest;whiteSpace=wrap;html=1;" parent="WFuNydp6h5hT6rmujta5-20" vertex="1">
          <mxGeometry y="108" width="160" height="102" as="geometry" />
        </mxCell>
        <mxCell id="WFuNydp6h5hT6rmujta5-24" value="DIKUArcade&amp;nbsp;&lt;div&gt;Dynamicshape&lt;/div&gt;" style="swimlane;fontStyle=1;align=center;verticalAlign=top;childLayout=stackLayout;horizontal=1;startSize=40;horizontalStack=0;resizeParent=1;resizeParentMax=0;resizeLast=0;collapsible=1;marginBottom=0;whiteSpace=wrap;html=1;" parent="1" vertex="1">
          <mxGeometry x="353" y="85" width="160" height="134" as="geometry" />
        </mxCell>
        <mxCell id="WFuNydp6h5hT6rmujta5-25" value="Vector2 position&lt;div&gt;Vector2 extends&lt;/div&gt;&lt;div&gt;Vector2 velocity&lt;/div&gt;" style="text;strokeColor=none;fillColor=none;align=left;verticalAlign=top;spacingLeft=4;spacingRight=4;overflow=hidden;rotatable=0;points=[[0,0.5],[1,0.5]];portConstraint=eastwest;whiteSpace=wrap;html=1;" parent="WFuNydp6h5hT6rmujta5-24" vertex="1">
          <mxGeometry y="40" width="160" height="60" as="geometry" />
        </mxCell>
        <mxCell id="WFuNydp6h5hT6rmujta5-26" value="" style="line;strokeWidth=1;fillColor=none;align=left;verticalAlign=middle;spacingTop=-1;spacingLeft=3;spacingRight=3;rotatable=0;labelPosition=right;points=[];portConstraint=eastwest;strokeColor=inherit;" parent="WFuNydp6h5hT6rmujta5-24" vertex="1">
          <mxGeometry y="100" width="160" height="8" as="geometry" />
        </mxCell>
        <mxCell id="WFuNydp6h5hT6rmujta5-27" value="Move()" style="text;strokeColor=none;fillColor=none;align=left;verticalAlign=top;spacingLeft=4;spacingRight=4;overflow=hidden;rotatable=0;points=[[0,0.5],[1,0.5]];portConstraint=eastwest;whiteSpace=wrap;html=1;" parent="WFuNydp6h5hT6rmujta5-24" vertex="1">
          <mxGeometry y="108" width="160" height="26" as="geometry" />
        </mxCell>
        <mxCell id="WFuNydp6h5hT6rmujta5-28" value="Player" style="swimlane;fontStyle=1;align=center;verticalAlign=top;childLayout=stackLayout;horizontal=1;startSize=26;horizontalStack=0;resizeParent=1;resizeParentMax=0;resizeLast=0;collapsible=1;marginBottom=0;whiteSpace=wrap;html=1;" parent="1" vertex="1">
          <mxGeometry x="630" y="439" width="160" height="210" as="geometry" />
        </mxCell>
        <mxCell id="WFuNydp6h5hT6rmujta5-29" value="Dynamicshape&lt;div&gt;moveleft&lt;/div&gt;&lt;div&gt;move right&lt;/div&gt;&lt;div&gt;movementspeed&lt;/div&gt;" style="text;strokeColor=none;fillColor=none;align=left;verticalAlign=top;spacingLeft=4;spacingRight=4;overflow=hidden;rotatable=0;points=[[0,0.5],[1,0.5]];portConstraint=eastwest;whiteSpace=wrap;html=1;" parent="WFuNydp6h5hT6rmujta5-28" vertex="1">
          <mxGeometry y="26" width="160" height="64" as="geometry" />
        </mxCell>
        <mxCell id="WFuNydp6h5hT6rmujta5-30" value="" style="line;strokeWidth=1;fillColor=none;align=left;verticalAlign=middle;spacingTop=-1;spacingLeft=3;spacingRight=3;rotatable=0;labelPosition=right;points=[];portConstraint=eastwest;strokeColor=inherit;" parent="WFuNydp6h5hT6rmujta5-28" vertex="1">
          <mxGeometry y="90" width="160" height="8" as="geometry" />
        </mxCell>
        <mxCell id="WFuNydp6h5hT6rmujta5-31" value="Movedirection()&lt;div&gt;Move()&lt;/div&gt;&lt;div&gt;GetShape()&lt;/div&gt;&lt;div&gt;ResetPosition&lt;/div&gt;&lt;div&gt;IsMovingLeft&lt;/div&gt;&lt;div&gt;IsMovingRight&lt;br&gt;&lt;/div&gt;&lt;div&gt;GetMovementDirection&lt;/div&gt;&lt;div&gt;&lt;br&gt;&lt;/div&gt;&lt;div&gt;&lt;br&gt;&lt;/div&gt;" style="text;strokeColor=none;fillColor=none;align=left;verticalAlign=top;spacingLeft=4;spacingRight=4;overflow=hidden;rotatable=0;points=[[0,0.5],[1,0.5]];portConstraint=eastwest;whiteSpace=wrap;html=1;" parent="WFuNydp6h5hT6rmujta5-28" vertex="1">
          <mxGeometry y="98" width="160" height="112" as="geometry" />
        </mxCell>
        <mxCell id="WFuNydp6h5hT6rmujta5-52" style="edgeStyle=orthogonalEdgeStyle;rounded=0;orthogonalLoop=1;jettySize=auto;html=1;exitX=0;exitY=0;exitDx=0;exitDy=0;entryX=0;entryY=1;entryDx=0;entryDy=0;" parent="1" source="WFuNydp6h5hT6rmujta5-32" target="WFuNydp6h5hT6rmujta5-1" edge="1">
          <mxGeometry relative="1" as="geometry">
            <Array as="points">
              <mxPoint x="80" y="545" />
              <mxPoint x="80" y="305" />
            </Array>
          </mxGeometry>
        </mxCell>
        <mxCell id="WFuNydp6h5hT6rmujta5-77" value="&lt;span style=&quot;font-size: 12px; background-color: rgb(251, 251, 251);&quot;&gt;Inheritance&lt;/span&gt;" style="edgeLabel;html=1;align=center;verticalAlign=middle;resizable=0;points=[];" parent="WFuNydp6h5hT6rmujta5-52" vertex="1" connectable="0">
          <mxGeometry x="0.0607" y="-3" relative="1" as="geometry">
            <mxPoint as="offset" />
          </mxGeometry>
        </mxCell>
        <mxCell id="WFuNydp6h5hT6rmujta5-32" value="Block" style="swimlane;fontStyle=1;align=center;verticalAlign=top;childLayout=stackLayout;horizontal=1;startSize=26;horizontalStack=0;resizeParent=1;resizeParentMax=0;resizeLast=0;collapsible=1;marginBottom=0;whiteSpace=wrap;html=1;" parent="1" vertex="1">
          <mxGeometry x="110" y="545" width="160" height="94" as="geometry" />
        </mxCell>
        <mxCell id="WFuNydp6h5hT6rmujta5-33" value="Value&lt;div&gt;Health&lt;/div&gt;" style="text;strokeColor=none;fillColor=none;align=left;verticalAlign=top;spacingLeft=4;spacingRight=4;overflow=hidden;rotatable=0;points=[[0,0.5],[1,0.5]];portConstraint=eastwest;whiteSpace=wrap;html=1;" parent="WFuNydp6h5hT6rmujta5-32" vertex="1">
          <mxGeometry y="26" width="160" height="34" as="geometry" />
        </mxCell>
        <mxCell id="WFuNydp6h5hT6rmujta5-34" value="" style="line;strokeWidth=1;fillColor=none;align=left;verticalAlign=middle;spacingTop=-1;spacingLeft=3;spacingRight=3;rotatable=0;labelPosition=right;points=[];portConstraint=eastwest;strokeColor=inherit;" parent="WFuNydp6h5hT6rmujta5-32" vertex="1">
          <mxGeometry y="60" width="160" height="8" as="geometry" />
        </mxCell>
        <mxCell id="WFuNydp6h5hT6rmujta5-35" value="Hit()" style="text;strokeColor=none;fillColor=none;align=left;verticalAlign=top;spacingLeft=4;spacingRight=4;overflow=hidden;rotatable=0;points=[[0,0.5],[1,0.5]];portConstraint=eastwest;whiteSpace=wrap;html=1;" parent="WFuNydp6h5hT6rmujta5-32" vertex="1">
          <mxGeometry y="68" width="160" height="26" as="geometry" />
        </mxCell>
        <mxCell id="WFuNydp6h5hT6rmujta5-36" value="HardenedBlock" style="swimlane;fontStyle=1;align=center;verticalAlign=top;childLayout=stackLayout;horizontal=1;startSize=26;horizontalStack=0;resizeParent=1;resizeParentMax=0;resizeLast=0;collapsible=1;marginBottom=0;whiteSpace=wrap;html=1;" parent="1" vertex="1">
          <mxGeometry x="30" y="685" width="120" height="60" as="geometry" />
        </mxCell>
        <mxCell id="WFuNydp6h5hT6rmujta5-38" value="" style="line;strokeWidth=1;fillColor=none;align=left;verticalAlign=middle;spacingTop=-1;spacingLeft=3;spacingRight=3;rotatable=0;labelPosition=right;points=[];portConstraint=eastwest;strokeColor=inherit;" parent="WFuNydp6h5hT6rmujta5-36" vertex="1">
          <mxGeometry y="26" width="120" height="8" as="geometry" />
        </mxCell>
        <mxCell id="WFuNydp6h5hT6rmujta5-39" value="HardenedBlock" style="text;strokeColor=none;fillColor=none;align=left;verticalAlign=top;spacingLeft=4;spacingRight=4;overflow=hidden;rotatable=0;points=[[0,0.5],[1,0.5]];portConstraint=eastwest;whiteSpace=wrap;html=1;" parent="WFuNydp6h5hT6rmujta5-36" vertex="1">
          <mxGeometry y="34" width="120" height="26" as="geometry" />
        </mxCell>
        <mxCell id="WFuNydp6h5hT6rmujta5-40" value="UnBreakableBlock" style="swimlane;fontStyle=1;align=center;verticalAlign=top;childLayout=stackLayout;horizontal=1;startSize=26;horizontalStack=0;resizeParent=1;resizeParentMax=0;resizeLast=0;collapsible=1;marginBottom=0;whiteSpace=wrap;html=1;" parent="1" vertex="1">
          <mxGeometry x="240" y="680" width="140" height="60" as="geometry" />
        </mxCell>
        <mxCell id="WFuNydp6h5hT6rmujta5-42" value="" style="line;strokeWidth=1;fillColor=none;align=left;verticalAlign=middle;spacingTop=-1;spacingLeft=3;spacingRight=3;rotatable=0;labelPosition=right;points=[];portConstraint=eastwest;strokeColor=inherit;" parent="WFuNydp6h5hT6rmujta5-40" vertex="1">
          <mxGeometry y="26" width="140" height="8" as="geometry" />
        </mxCell>
        <mxCell id="WFuNydp6h5hT6rmujta5-43" value="Hit()" style="text;strokeColor=none;fillColor=none;align=left;verticalAlign=top;spacingLeft=4;spacingRight=4;overflow=hidden;rotatable=0;points=[[0,0.5],[1,0.5]];portConstraint=eastwest;whiteSpace=wrap;html=1;" parent="WFuNydp6h5hT6rmujta5-40" vertex="1">
          <mxGeometry y="34" width="140" height="26" as="geometry" />
        </mxCell>
        <mxCell id="WFuNydp6h5hT6rmujta5-45" style="edgeStyle=orthogonalEdgeStyle;rounded=0;orthogonalLoop=1;jettySize=auto;html=1;exitX=1;exitY=0;exitDx=0;exitDy=0;entryX=1.024;entryY=0.971;entryDx=0;entryDy=0;entryPerimeter=0;" parent="1" source="WFuNydp6h5hT6rmujta5-40" target="WFuNydp6h5hT6rmujta5-35" edge="1">
          <mxGeometry relative="1" as="geometry" />
        </mxCell>
        <mxCell id="WFuNydp6h5hT6rmujta5-46" value="Inheritance" style="text;html=1;align=center;verticalAlign=middle;resizable=0;points=[];autosize=1;strokeColor=none;fillColor=none;" parent="1" vertex="1">
          <mxGeometry x="280" y="635" width="80" height="30" as="geometry" />
        </mxCell>
        <mxCell id="WFuNydp6h5hT6rmujta5-48" style="edgeStyle=orthogonalEdgeStyle;rounded=0;orthogonalLoop=1;jettySize=auto;html=1;exitX=0.5;exitY=0;exitDx=0;exitDy=0;entryX=0.024;entryY=1.016;entryDx=0;entryDy=0;entryPerimeter=0;" parent="1" source="WFuNydp6h5hT6rmujta5-36" target="WFuNydp6h5hT6rmujta5-35" edge="1">
          <mxGeometry relative="1" as="geometry" />
        </mxCell>
        <mxCell id="WFuNydp6h5hT6rmujta5-49" value="Inheritance" style="text;html=1;align=center;verticalAlign=middle;resizable=0;points=[];autosize=1;strokeColor=none;fillColor=none;" parent="1" vertex="1">
          <mxGeometry x="30" y="635" width="80" height="30" as="geometry" />
        </mxCell>
        <mxCell id="WFuNydp6h5hT6rmujta5-50" value="" style="endArrow=block;dashed=1;endFill=0;endSize=12;html=1;rounded=0;entryX=1;entryY=0;entryDx=0;entryDy=0;exitX=0.005;exitY=1.013;exitDx=0;exitDy=0;exitPerimeter=0;" parent="1" source="WFuNydp6h5hT6rmujta5-18" target="WFuNydp6h5hT6rmujta5-32" edge="1">
          <mxGeometry width="160" relative="1" as="geometry">
            <mxPoint x="420" y="545" as="sourcePoint" />
            <mxPoint x="500" y="415" as="targetPoint" />
          </mxGeometry>
        </mxCell>
        <mxCell id="WFuNydp6h5hT6rmujta5-82" value="&lt;span style=&quot;font-size: 12px; background-color: rgb(251, 251, 251);&quot;&gt;Dependency&lt;/span&gt;" style="edgeLabel;html=1;align=center;verticalAlign=middle;resizable=0;points=[];" parent="WFuNydp6h5hT6rmujta5-50" vertex="1" connectable="0">
          <mxGeometry x="-0.026" y="-3" relative="1" as="geometry">
            <mxPoint y="1" as="offset" />
          </mxGeometry>
        </mxCell>
        <mxCell id="WFuNydp6h5hT6rmujta5-56" value="1" style="endArrow=open;html=1;endSize=12;startArrow=diamondThin;startSize=14;startFill=0;edgeStyle=orthogonalEdgeStyle;align=left;verticalAlign=bottom;rounded=0;entryX=0;entryY=0;entryDx=0;entryDy=0;" parent="1" target="WFuNydp6h5hT6rmujta5-20" edge="1">
          <mxGeometry x="-1" y="3" relative="1" as="geometry">
            <mxPoint x="110" y="588" as="sourcePoint" />
            <mxPoint x="570" y="75" as="targetPoint" />
            <Array as="points">
              <mxPoint x="40" y="588" />
              <mxPoint x="40" y="37" />
            </Array>
          </mxGeometry>
        </mxCell>
        <mxCell id="WFuNydp6h5hT6rmujta5-78" value="&lt;span style=&quot;font-size: 12px; background-color: rgb(251, 251, 251);&quot;&gt;Aggregation&lt;/span&gt;" style="edgeLabel;html=1;align=center;verticalAlign=middle;resizable=0;points=[];" parent="WFuNydp6h5hT6rmujta5-56" vertex="1" connectable="0">
          <mxGeometry x="-0.1216" relative="1" as="geometry">
            <mxPoint as="offset" />
          </mxGeometry>
        </mxCell>
        <mxCell id="WFuNydp6h5hT6rmujta5-59" value="1" style="endArrow=open;html=1;endSize=12;startArrow=diamondThin;startSize=14;startFill=1;edgeStyle=orthogonalEdgeStyle;align=left;verticalAlign=bottom;rounded=0;exitX=1;exitY=0;exitDx=0;exitDy=0;entryX=0.009;entryY=0.998;entryDx=0;entryDy=0;entryPerimeter=0;" parent="1" edge="1">
          <mxGeometry x="-1" y="3" relative="1" as="geometry">
            <mxPoint x="558.56" y="465.24" as="sourcePoint" />
            <mxPoint x="640" y="266.9960000000003" as="targetPoint" />
            <Array as="points">
              <mxPoint x="578.56" y="465.24" />
              <mxPoint x="578.56" y="315.24" />
            </Array>
          </mxGeometry>
        </mxCell>
        <mxCell id="WFuNydp6h5hT6rmujta5-74" value="&lt;span style=&quot;font-size: 12px; background-color: rgb(251, 251, 251);&quot;&gt;Composition&lt;/span&gt;" style="edgeLabel;html=1;align=center;verticalAlign=middle;resizable=0;points=[];" parent="WFuNydp6h5hT6rmujta5-59" vertex="1" connectable="0">
          <mxGeometry x="-0.1766" y="2" relative="1" as="geometry">
            <mxPoint as="offset" />
          </mxGeometry>
        </mxCell>
        <mxCell id="WFuNydp6h5hT6rmujta5-61" value="1" style="endArrow=open;html=1;endSize=12;startArrow=diamondThin;startSize=14;startFill=1;edgeStyle=orthogonalEdgeStyle;align=left;verticalAlign=bottom;rounded=0;entryX=1.009;entryY=0.978;entryDx=0;entryDy=0;entryPerimeter=0;" parent="1" target="WFuNydp6h5hT6rmujta5-23" edge="1">
          <mxGeometry x="-1" y="3" relative="1" as="geometry">
            <mxPoint x="790" y="445" as="sourcePoint" />
            <mxPoint x="500" y="415" as="targetPoint" />
            <Array as="points">
              <mxPoint x="810" y="445" />
              <mxPoint x="810" y="312" />
            </Array>
          </mxGeometry>
        </mxCell>
        <mxCell id="WFuNydp6h5hT6rmujta5-62" value="&lt;span style=&quot;caret-color: rgb(0, 0, 0); color: rgb(0, 0, 0); font-family: Helvetica; font-size: 12px; font-style: normal; font-variant-caps: normal; font-weight: 400; letter-spacing: normal; orphans: auto; text-align: center; text-indent: 0px; text-transform: none; white-space: nowrap; widows: auto; word-spacing: 0px; -webkit-text-stroke-width: 0px; background-color: rgb(251, 251, 251); text-decoration: none; display: inline !important; float: none;&quot;&gt;Composition&lt;/span&gt;" style="text;whiteSpace=wrap;html=1;" parent="1" vertex="1">
          <mxGeometry x="750" y="250" width="100" height="40" as="geometry" />
        </mxCell>
        <mxCell id="WFuNydp6h5hT6rmujta5-67" value="Dependency&amp;nbsp;" style="endArrow=open;endSize=12;dashed=1;html=1;rounded=0;exitX=-0.021;exitY=0.946;exitDx=0;exitDy=0;exitPerimeter=0;entryX=0.671;entryY=1.004;entryDx=0;entryDy=0;entryPerimeter=0;" parent="1" source="WFuNydp6h5hT6rmujta5-31" target="WFuNydp6h5hT6rmujta5-18" edge="1">
          <mxGeometry x="0.0065" width="160" relative="1" as="geometry">
            <mxPoint x="340" y="415" as="sourcePoint" />
            <mxPoint x="500" y="415" as="targetPoint" />
            <mxPoint as="offset" />
          </mxGeometry>
        </mxCell>
        <mxCell id="WFuNydp6h5hT6rmujta5-68" style="edgeStyle=orthogonalEdgeStyle;rounded=0;orthogonalLoop=1;jettySize=auto;html=1;exitX=0;exitY=0;exitDx=0;exitDy=0;entryX=0.826;entryY=1.155;entryDx=0;entryDy=0;entryPerimeter=0;" parent="1" source="WFuNydp6h5hT6rmujta5-28" target="WFuNydp6h5hT6rmujta5-8" edge="1">
          <mxGeometry relative="1" as="geometry">
            <Array as="points">
              <mxPoint x="630" y="405" />
              <mxPoint x="224" y="405" />
            </Array>
          </mxGeometry>
        </mxCell>
        <mxCell id="WFuNydp6h5hT6rmujta5-76" value="&lt;span style=&quot;font-size: 12px; background-color: rgb(251, 251, 251);&quot;&gt;Inheritance&lt;/span&gt;" style="edgeLabel;html=1;align=center;verticalAlign=middle;resizable=0;points=[];" parent="WFuNydp6h5hT6rmujta5-68" vertex="1" connectable="0">
          <mxGeometry x="-0.1254" relative="1" as="geometry">
            <mxPoint x="-39" as="offset" />
          </mxGeometry>
        </mxCell>
        <mxCell id="WFuNydp6h5hT6rmujta5-70" value="" style="line;strokeWidth=1;fillColor=none;align=left;verticalAlign=middle;spacingTop=-1;spacingLeft=3;spacingRight=3;rotatable=0;labelPosition=right;points=[];portConstraint=eastwest;strokeColor=inherit;" parent="1" vertex="1">
          <mxGeometry x="-350" y="110" width="40" height="18" as="geometry" />
        </mxCell>
        <mxCell id="WFuNydp6h5hT6rmujta5-71" value="1" style="endArrow=open;html=1;endSize=12;startArrow=diamondThin;startSize=14;startFill=1;edgeStyle=orthogonalEdgeStyle;align=left;verticalAlign=bottom;rounded=0;entryX=1.005;entryY=1.106;entryDx=0;entryDy=0;entryPerimeter=0;" parent="1" target="WFuNydp6h5hT6rmujta5-27" edge="1">
          <mxGeometry x="-1" y="3" relative="1" as="geometry">
            <mxPoint x="720" y="435" as="sourcePoint" />
            <mxPoint x="440" y="375" as="targetPoint" />
            <Array as="points">
              <mxPoint x="700" y="435" />
              <mxPoint x="700" y="335" />
              <mxPoint x="550" y="335" />
              <mxPoint x="550" y="222" />
            </Array>
          </mxGeometry>
        </mxCell>
        <mxCell id="WFuNydp6h5hT6rmujta5-73" value="Composition" style="edgeLabel;html=1;align=center;verticalAlign=middle;resizable=0;points=[];" parent="WFuNydp6h5hT6rmujta5-71" vertex="1" connectable="0">
          <mxGeometry x="0.6869" y="-3" relative="1" as="geometry">
            <mxPoint as="offset" />
          </mxGeometry>
        </mxCell>
        <mxCell id="WFuNydp6h5hT6rmujta5-84" value="1" style="endArrow=open;html=1;endSize=12;startArrow=diamondThin;startSize=14;startFill=1;edgeStyle=orthogonalEdgeStyle;align=left;verticalAlign=bottom;rounded=0;exitX=0.868;exitY=-0.025;exitDx=0;exitDy=0;entryX=0.343;entryY=1.106;entryDx=0;entryDy=0;entryPerimeter=0;exitPerimeter=0;" parent="1" source="WFuNydp6h5hT6rmujta5-15" target="WFuNydp6h5hT6rmujta5-27" edge="1">
          <mxGeometry x="-1" y="3" relative="1" as="geometry">
            <mxPoint x="280" y="375" as="sourcePoint" />
            <mxPoint x="440" y="375" as="targetPoint" />
            <Array as="points">
              <mxPoint x="515" y="462" />
              <mxPoint x="515" y="342" />
              <mxPoint x="410" y="342" />
              <mxPoint x="410" y="245" />
              <mxPoint x="408" y="245" />
            </Array>
          </mxGeometry>
        </mxCell>
        <mxCell id="WFuNydp6h5hT6rmujta5-85" value="Composition" style="edgeLabel;html=1;align=center;verticalAlign=middle;resizable=0;points=[];" parent="WFuNydp6h5hT6rmujta5-84" vertex="1" connectable="0">
          <mxGeometry x="0.1107" y="-1" relative="1" as="geometry">
            <mxPoint as="offset" />
          </mxGeometry>
        </mxCell>
      </root>
    </mxGraphModel>
  </diagram>
</mxfile>
